<?xml version="1.0" encoding="UTF-8" standalone="no"?>
<!DOCTYPE svg PUBLIC "-//W3C//DTD SVG 1.1//EN"
 "http://www.w3.org/Graphics/SVG/1.1/DTD/svg11.dtd">
<!-- Generated by graphviz version 2.43.0 (0)
 -->
<!-- Title: full_architecture_corrected Pages: 1 -->
<svg width="1326pt" height="157pt"
 viewBox="0.00 0.00 1326.00 157.00" xmlns="http://www.w3.org/2000/svg" xmlns:xlink="http://www.w3.org/1999/xlink">
<g id="graph0" class="graph" transform="scale(1 1) rotate(0) translate(4 153)">
<title>full_architecture_corrected</title>
<polygon fill="white" stroke="transparent" points="-4,4 -4,-153 1322,-153 1322,4 -4,4"/>
<g id="clust1" class="cluster">
<title>cluster_clients</title>
<polygon fill="lightgray" stroke="black" points="8,-8 8,-141 463,-141 463,-8 8,-8"/>
<text text-anchor="middle" x="235.5" y="-125.8" font-family="Times,serif" font-size="14.00">External Clients</text>
</g>
<g id="clust2" class="cluster">
<title>cluster_blender</title>
<polygon fill="lightcoral" stroke="black" points="586,-20 586,-113 1310,-113 1310,-20 586,-20"/>
<text text-anchor="middle" x="948" y="-97.8" font-family="Times,serif" font-size="14.00">Blender Environment</text>
</g>
<!-- python -->
<g id="node1" class="node">
<title>python</title>
<polygon fill="lightblue" stroke="black" points="151,-54 18,-54 18,-16 151,-16 151,-54"/>
<text text-anchor="middle" x="84.5" y="-38.8" font-family="Times,serif" font-size="14.00">External Python</text>
<text text-anchor="middle" x="84.5" y="-23.8" font-family="Times,serif" font-size="14.00">Control API</text>
</g>
<!-- addon -->
<g id="node4" class="node">
<title>addon</title>
<polygon fill="yellow" stroke="black" points="759,-81.5 594,-81.5 594,-28.5 759,-28.5 759,-81.5"/>
<text text-anchor="middle" x="676.5" y="-66.3" font-family="Times,serif" font-size="14.00">BLD_Remote_MCP</text>
<text text-anchor="middle" x="676.5" y="-51.3" font-family="Times,serif" font-size="14.00">(TCP Server)</text>
<text text-anchor="middle" x="676.5" y="-36.3" font-family="Times,serif" font-size="14.00">Listens on port 6688</text>
</g>
<!-- python&#45;&gt;addon -->
<g id="edge1" class="edge">
<title>python&#45;&gt;addon</title>
<path fill="none" stroke="black" d="M151.15,-32.16C190.77,-30.58 242.28,-28.79 288,-28 365.77,-26.66 385.38,-23.09 463,-28 502.69,-30.51 546.31,-35.64 583.64,-40.75"/>
<polygon fill="black" stroke="black" points="583.61,-44.28 593.99,-42.19 584.57,-37.35 583.61,-44.28"/>
<text text-anchor="middle" x="371.5" y="-46.8" font-family="Times,serif" font-size="14.00">Direct TCP</text>
<text text-anchor="middle" x="371.5" y="-31.8" font-family="Times,serif" font-size="14.00">JSON Protocol</text>
</g>
<!-- llm -->
<g id="node2" class="node">
<title>llm</title>
<polygon fill="lightgreen" stroke="black" points="153,-110 16,-110 16,-72 153,-72 153,-110"/>
<text text-anchor="middle" x="84.5" y="-94.8" font-family="Times,serif" font-size="14.00">LLM</text>
<text text-anchor="middle" x="84.5" y="-79.8" font-family="Times,serif" font-size="14.00">(Claude/VSCode)</text>
</g>
<!-- mcp_server -->
<g id="node3" class="node">
<title>mcp_server</title>
<polygon fill="orange" stroke="black" points="455,-105 288,-105 288,-67 455,-67 455,-105"/>
<text text-anchor="middle" x="371.5" y="-89.8" font-family="Times,serif" font-size="14.00">MCP Server</text>
<text text-anchor="middle" x="371.5" y="-74.8" font-family="Times,serif" font-size="14.00">(uvx blender&#45;remote)</text>
</g>
<!-- llm&#45;&gt;mcp_server -->
<g id="edge2" class="edge">
<title>llm&#45;&gt;mcp_server</title>
<path fill="none" stroke="black" d="M153.04,-89.82C190.29,-89.16 237.1,-88.34 277.74,-87.63"/>
<polygon fill="black" stroke="black" points="277.99,-91.12 287.93,-87.45 277.87,-84.12 277.99,-91.12"/>
<text text-anchor="middle" x="220.5" y="-107.8" font-family="Times,serif" font-size="14.00">MCP Protocol</text>
<text text-anchor="middle" x="220.5" y="-92.8" font-family="Times,serif" font-size="14.00">(stdio)</text>
</g>
<!-- mcp_server&#45;&gt;addon -->
<g id="edge3" class="edge">
<title>mcp_server&#45;&gt;addon</title>
<path fill="none" stroke="black" d="M455.3,-77.53C495.12,-73.46 542.97,-68.56 583.88,-64.37"/>
<polygon fill="black" stroke="black" points="584.26,-67.85 593.85,-63.35 583.55,-60.89 584.26,-67.85"/>
<text text-anchor="middle" x="524.5" y="-93.8" font-family="Times,serif" font-size="14.00">TCP Client</text>
<text text-anchor="middle" x="524.5" y="-78.8" font-family="Times,serif" font-size="14.00">JSON Protocol</text>
</g>
<!-- bpy -->
<g id="node5" class="node">
<title>bpy</title>
<polygon fill="lightyellow" stroke="black" points="1043,-73 886,-73 886,-37 1043,-37 1043,-73"/>
<text text-anchor="middle" x="964.5" y="-51.3" font-family="Times,serif" font-size="14.00">Blender Python API</text>
</g>
<!-- addon&#45;&gt;bpy -->
<g id="edge4" class="edge">
<title>addon&#45;&gt;bpy</title>
<path fill="none" stroke="black" d="M759.07,-55C795.44,-55 838.36,-55 875.46,-55"/>
<polygon fill="black" stroke="black" points="875.76,-58.5 885.76,-55 875.76,-51.5 875.76,-58.5"/>
<text text-anchor="middle" x="822.5" y="-58.8" font-family="Times,serif" font-size="14.00">Python Calls</text>
</g>
<!-- blender -->
<g id="node6" class="node">
<title>blender</title>
<polygon fill="white" stroke="black" points="1302,-74 1158,-74 1158,-36 1302,-36 1302,-74"/>
<text text-anchor="middle" x="1230" y="-58.8" font-family="Times,serif" font-size="14.00">Blender</text>
<text text-anchor="middle" x="1230" y="-43.8" font-family="Times,serif" font-size="14.00">(GUI/background)</text>
</g>
<!-- bpy&#45;&gt;blender -->
<g id="edge5" class="edge">
<title>bpy&#45;&gt;blender</title>
<path fill="none" stroke="black" d="M1043.13,-55C1076.01,-55 1114.34,-55 1147.62,-55"/>
<polygon fill="black" stroke="black" points="1147.77,-58.5 1157.77,-55 1147.77,-51.5 1147.77,-58.5"/>
<text text-anchor="middle" x="1100.5" y="-58.8" font-family="Times,serif" font-size="14.00">Operations</text>
</g>
</g>
</svg>
