<?xml version="1.0" encoding="UTF-8" standalone="no"?>
<!DOCTYPE svg PUBLIC "-//W3C//DTD SVG 1.1//EN"
 "http://www.w3.org/Graphics/SVG/1.1/DTD/svg11.dtd">
<!-- Generated by graphviz version 2.43.0 (0)
 -->
<!-- Title: architecture Pages: 1 -->
<svg width="265pt" height="356pt"
 viewBox="0.00 0.00 265.00 356.00" xmlns="http://www.w3.org/2000/svg" xmlns:xlink="http://www.w3.org/1999/xlink">
<g id="graph0" class="graph" transform="scale(1 1) rotate(0) translate(4 352)">
<title>architecture</title>
<polygon fill="white" stroke="transparent" points="-4,4 -4,-352 261,-352 261,4 -4,4"/>
<!-- llm -->
<g id="node1" class="node">
<title>llm</title>
<polygon fill="lightgreen" stroke="black" points="200,-348 0,-348 0,-310 200,-310 200,-348"/>
<text text-anchor="middle" x="100" y="-332.8" font-family="Times,serif" font-size="14.00">LLM IDE</text>
<text text-anchor="middle" x="100" y="-317.8" font-family="Times,serif" font-size="14.00">(VSCode/Claude Desktop)</text>
</g>
<!-- mcp -->
<g id="node2" class="node">
<title>mcp</title>
<polygon fill="orange" stroke="black" points="178.5,-244 21.5,-244 21.5,-206 178.5,-206 178.5,-244"/>
<text text-anchor="middle" x="100" y="-228.8" font-family="Times,serif" font-size="14.00">uvx blender&#45;remote</text>
<text text-anchor="middle" x="100" y="-213.8" font-family="Times,serif" font-size="14.00">(MCP Server)</text>
</g>
<!-- llm&#45;&gt;mcp -->
<g id="edge1" class="edge">
<title>llm&#45;&gt;mcp</title>
<path fill="none" stroke="black" d="M100,-309.76C100,-294.32 100,-271.91 100,-254.16"/>
<polygon fill="black" stroke="black" points="103.5,-254.08 100,-244.08 96.5,-254.08 103.5,-254.08"/>
<text text-anchor="middle" x="149.5" y="-280.8" font-family="Times,serif" font-size="14.00">MCP Protocol</text>
<text text-anchor="middle" x="149.5" y="-265.8" font-family="Times,serif" font-size="14.00">(stdio)</text>
</g>
<!-- addon -->
<g id="node3" class="node">
<title>addon</title>
<polygon fill="yellow" stroke="black" points="182.5,-140 17.5,-140 17.5,-87 182.5,-87 182.5,-140"/>
<text text-anchor="middle" x="100" y="-124.8" font-family="Times,serif" font-size="14.00">BLD_Remote_MCP</text>
<text text-anchor="middle" x="100" y="-109.8" font-family="Times,serif" font-size="14.00">(Blender Addon)</text>
<text text-anchor="middle" x="100" y="-94.8" font-family="Times,serif" font-size="14.00">Listens on port 6688</text>
</g>
<!-- mcp&#45;&gt;addon -->
<g id="edge2" class="edge">
<title>mcp&#45;&gt;addon</title>
<path fill="none" stroke="black" d="M100,-205.92C100,-190.92 100,-169.13 100,-150.58"/>
<polygon fill="black" stroke="black" points="103.5,-150.39 100,-140.39 96.5,-150.39 103.5,-150.39"/>
<text text-anchor="middle" x="178.5" y="-176.8" font-family="Times,serif" font-size="14.00">TCP Client</text>
<text text-anchor="middle" x="178.5" y="-161.8" font-family="Times,serif" font-size="14.00">connects to port 6688</text>
</g>
<!-- blender -->
<g id="node4" class="node">
<title>blender</title>
<polygon fill="lightcoral" stroke="black" points="179,-36 21,-36 21,0 179,0 179,-36"/>
<text text-anchor="middle" x="100" y="-14.3" font-family="Times,serif" font-size="14.00">Blender Application</text>
</g>
<!-- addon&#45;&gt;blender -->
<g id="edge3" class="edge">
<title>addon&#45;&gt;blender</title>
<path fill="none" stroke="black" d="M100,-86.95C100,-74.36 100,-59.17 100,-46.35"/>
<polygon fill="black" stroke="black" points="103.5,-46.24 100,-36.24 96.5,-46.24 103.5,-46.24"/>
<text text-anchor="middle" x="170.5" y="-57.8" font-family="Times,serif" font-size="14.00">Blender Python API</text>
</g>
</g>
</svg>
