<?xml version="1.0" encoding="UTF-8" standalone="no"?>
<!DOCTYPE svg PUBLIC "-//W3C//DTD SVG 1.1//EN"
 "http://www.w3.org/Graphics/SVG/1.1/DTD/svg11.dtd">
<!-- Generated by graphviz version 2.43.0 (0)
 -->
<!-- Title: Benefits Pages: 1 -->
<svg width="438pt" height="401pt"
 viewBox="0.00 0.00 438.00 401.00" xmlns="http://www.w3.org/2000/svg" xmlns:xlink="http://www.w3.org/1999/xlink">
<g id="graph0" class="graph" transform="scale(1 1) rotate(0) translate(4 397)">
<title>Benefits</title>
<polygon fill="white" stroke="transparent" points="-4,4 -4,-397 434,-397 434,4 -4,4"/>
<g id="clust1" class="cluster">
<title>cluster_benefits</title>
<polygon fill="lightgreen" stroke="lightgreen" points="8,-47 8,-346 158,-346 158,-47 8,-47"/>
<text text-anchor="middle" x="83" y="-330.8" font-family="Times,serif" font-size="14.00">Test Plan Benefits</text>
</g>
<g id="clust2" class="cluster">
<title>cluster_details</title>
<polygon fill="lightsteelblue" stroke="lightsteelblue" points="178,-8 178,-385 422,-385 422,-8 178,-8"/>
<text text-anchor="middle" x="300" y="-369.8" font-family="Times,serif" font-size="14.00">Detailed Features</text>
</g>
<!-- Comprehensive -->
<g id="node1" class="node">
<title>Comprehensive</title>
<polygon fill="lightblue" stroke="black" points="147,-315 19,-315 19,-277 147,-277 147,-315"/>
<text text-anchor="middle" x="83" y="-299.8" font-family="Times,serif" font-size="14.00">Comprehensive</text>
<text text-anchor="middle" x="83" y="-284.8" font-family="Times,serif" font-size="14.00">Coverage</text>
</g>
<!-- AllTools -->
<g id="node6" class="node">
<title>AllTools</title>
<polygon fill="white" stroke="black" points="388,-353.5 212,-353.5 212,-300.5 388,-300.5 388,-353.5"/>
<text text-anchor="middle" x="300" y="-338.3" font-family="Times,serif" font-size="14.00">• All MCP tools tested</text>
<text text-anchor="middle" x="300" y="-323.3" font-family="Times,serif" font-size="14.00">• Protocol compliance</text>
<text text-anchor="middle" x="300" y="-308.3" font-family="Times,serif" font-size="14.00">• Error handling</text>
</g>
<!-- Comprehensive&#45;&gt;AllTools -->
<g id="edge1" class="edge">
<title>Comprehensive&#45;&gt;AllTools</title>
<path fill="none" stroke="black" d="M147.05,-305.09C164.28,-307.58 183.35,-310.33 202,-313.01"/>
<polygon fill="black" stroke="black" points="201.6,-316.49 212,-314.46 202.6,-309.56 201.6,-316.49"/>
</g>
<!-- Multiple -->
<g id="node2" class="node">
<title>Multiple</title>
<polygon fill="lightyellow" stroke="black" points="150,-259 16,-259 16,-221 150,-221 150,-259"/>
<text text-anchor="middle" x="83" y="-243.8" font-family="Times,serif" font-size="14.00">Multiple Testing</text>
<text text-anchor="middle" x="83" y="-228.8" font-family="Times,serif" font-size="14.00">Methods</text>
</g>
<!-- HTTPie -->
<g id="node7" class="node">
<title>HTTPie</title>
<polygon fill="white" stroke="black" points="395.5,-282.5 204.5,-282.5 204.5,-229.5 395.5,-229.5 395.5,-282.5"/>
<text text-anchor="middle" x="300" y="-267.3" font-family="Times,serif" font-size="14.00">• HTTPie direct testing</text>
<text text-anchor="middle" x="300" y="-252.3" font-family="Times,serif" font-size="14.00">• CLI validation</text>
<text text-anchor="middle" x="300" y="-237.3" font-family="Times,serif" font-size="14.00">• Socket communication</text>
</g>
<!-- Multiple&#45;&gt;HTTPie -->
<g id="edge2" class="edge">
<title>Multiple&#45;&gt;HTTPie</title>
<path fill="none" stroke="black" d="M150.26,-244.93C164.1,-245.96 179,-247.07 193.85,-248.18"/>
<polygon fill="black" stroke="black" points="193.88,-251.69 204.11,-248.94 194.4,-244.71 193.88,-251.69"/>
</g>
<!-- CrossVal -->
<g id="node3" class="node">
<title>CrossVal</title>
<polygon fill="lightcoral" stroke="black" points="149,-203 17,-203 17,-167 149,-167 149,-203"/>
<text text-anchor="middle" x="83" y="-181.3" font-family="Times,serif" font-size="14.00">Cross&#45;Validation</text>
</g>
<!-- Dual -->
<g id="node8" class="node">
<title>Dual</title>
<polygon fill="white" stroke="black" points="413,-211.5 187,-211.5 187,-158.5 413,-158.5 413,-211.5"/>
<text text-anchor="middle" x="300" y="-196.3" font-family="Times,serif" font-size="14.00">• BlenderAutoMCP reference</text>
<text text-anchor="middle" x="300" y="-181.3" font-family="Times,serif" font-size="14.00">• State consistency</text>
<text text-anchor="middle" x="300" y="-166.3" font-family="Times,serif" font-size="14.00">• Cross&#45;service validation</text>
</g>
<!-- CrossVal&#45;&gt;Dual -->
<g id="edge3" class="edge">
<title>CrossVal&#45;&gt;Dual</title>
<path fill="none" stroke="black" d="M149.09,-185C157.89,-185 167.15,-185 176.56,-185"/>
<polygon fill="black" stroke="black" points="176.82,-188.5 186.82,-185 176.82,-181.5 176.82,-188.5"/>
</g>
<!-- Automated -->
<g id="node4" class="node">
<title>Automated</title>
<polygon fill="lightpink" stroke="black" points="132.5,-149 33.5,-149 33.5,-111 132.5,-111 132.5,-149"/>
<text text-anchor="middle" x="83" y="-133.8" font-family="Times,serif" font-size="14.00">Automation</text>
<text text-anchor="middle" x="83" y="-118.8" font-family="Times,serif" font-size="14.00">Support</text>
</g>
<!-- Scripts -->
<g id="node9" class="node">
<title>Scripts</title>
<polygon fill="white" stroke="black" points="391.5,-140.5 208.5,-140.5 208.5,-87.5 391.5,-87.5 391.5,-140.5"/>
<text text-anchor="middle" x="300" y="-125.3" font-family="Times,serif" font-size="14.00">• Complete test runner</text>
<text text-anchor="middle" x="300" y="-110.3" font-family="Times,serif" font-size="14.00">• Quick validation</text>
<text text-anchor="middle" x="300" y="-95.3" font-family="Times,serif" font-size="14.00">• Cleanup procedures</text>
</g>
<!-- Automated&#45;&gt;Scripts -->
<g id="edge4" class="edge">
<title>Automated&#45;&gt;Scripts</title>
<path fill="none" stroke="black" d="M132.52,-126.39C152.05,-124.94 175.33,-123.2 198.21,-121.5"/>
<polygon fill="black" stroke="black" points="198.62,-124.98 208.33,-120.75 198.1,-118 198.62,-124.98"/>
</g>
<!-- Production -->
<g id="node5" class="node">
<title>Production</title>
<polygon fill="lightcyan" stroke="black" points="130.5,-93 35.5,-93 35.5,-55 130.5,-55 130.5,-93"/>
<text text-anchor="middle" x="83" y="-77.8" font-family="Times,serif" font-size="14.00">Production</text>
<text text-anchor="middle" x="83" y="-62.8" font-family="Times,serif" font-size="14.00">Ready</text>
</g>
<!-- Realistic -->
<g id="node10" class="node">
<title>Realistic</title>
<polygon fill="white" stroke="black" points="414,-69.5 186,-69.5 186,-16.5 414,-16.5 414,-69.5"/>
<text text-anchor="middle" x="300" y="-54.3" font-family="Times,serif" font-size="14.00">• GUI and background modes</text>
<text text-anchor="middle" x="300" y="-39.3" font-family="Times,serif" font-size="14.00">• Error scenarios</text>
<text text-anchor="middle" x="300" y="-24.3" font-family="Times,serif" font-size="14.00">• Performance testing</text>
</g>
<!-- Production&#45;&gt;Realistic -->
<g id="edge5" class="edge">
<title>Production&#45;&gt;Realistic</title>
<path fill="none" stroke="black" d="M130.65,-67.27C144.25,-65.31 159.8,-63.07 175.81,-60.76"/>
<polygon fill="black" stroke="black" points="176.43,-64.21 185.83,-59.32 175.43,-57.28 176.43,-64.21"/>
</g>
</g>
</svg>
