<?xml version="1.0" encoding="UTF-8" standalone="no"?>
<!DOCTYPE svg PUBLIC "-//W3C//DTD SVG 1.1//EN"
 "http://www.w3.org/Graphics/SVG/1.1/DTD/svg11.dtd">
<!-- Generated by graphviz version 2.43.0 (0)
 -->
<!-- Title: StackComparison Pages: 1 -->
<svg width="418pt" height="539pt"
 viewBox="0.00 0.00 418.00 539.48" xmlns="http://www.w3.org/2000/svg" xmlns:xlink="http://www.w3.org/1999/xlink">
<g id="graph0" class="graph" transform="scale(1 1) rotate(0) translate(4 535.48)">
<title>StackComparison</title>
<polygon fill="white" stroke="transparent" points="-4,4 -4,-535.48 414,-535.48 414,4 -4,4"/>
<g id="clust1" class="cluster">
<title>cluster_our_stack</title>
<polygon fill="lightgreen" stroke="lightgreen" points="8,-195.74 8,-450.74 186,-450.74 186,-195.74 8,-195.74"/>
<text text-anchor="middle" x="97" y="-435.54" font-family="Times,serif" font-size="14.00">Our Stack</text>
</g>
<g id="clust2" class="cluster">
<title>cluster_ref_stack</title>
<polygon fill="lightcoral" stroke="lightcoral" points="199,-195.74 199,-450.74 373,-450.74 373,-195.74 199,-195.74"/>
<text text-anchor="middle" x="286" y="-435.54" font-family="Times,serif" font-size="14.00">Reference Stack</text>
</g>
<!-- Input -->
<g id="node1" class="node">
<title>Input</title>
<ellipse fill="lightyellow" stroke="black" cx="191" cy="-504.61" rx="103.48" ry="26.74"/>
<text text-anchor="middle" x="191" y="-508.41" font-family="Times,serif" font-size="14.00">Test Input</text>
<text text-anchor="middle" x="191" y="-493.41" font-family="Times,serif" font-size="14.00">(MCP Commands)</text>
</g>
<!-- Our_MCP -->
<g id="node2" class="node">
<title>Our_MCP</title>
<polygon fill="lightblue" stroke="black" points="176.5,-419.74 19.5,-419.74 19.5,-381.74 176.5,-381.74 176.5,-419.74"/>
<text text-anchor="middle" x="98" y="-404.54" font-family="Times,serif" font-size="14.00">uvx blender&#45;remote</text>
<text text-anchor="middle" x="98" y="-389.54" font-family="Times,serif" font-size="14.00">(FastMCP Server)</text>
</g>
<!-- Input&#45;&gt;Our_MCP -->
<g id="edge5" class="edge">
<title>Input&#45;&gt;Our_MCP</title>
<path fill="none" stroke="black" d="M167.77,-478.17C153.66,-462.71 135.7,-443.03 121.53,-427.52"/>
<polygon fill="black" stroke="black" points="123.84,-424.85 114.51,-419.83 118.67,-429.57 123.84,-424.85"/>
</g>
<!-- Ref_MCP -->
<g id="node5" class="node">
<title>Ref_MCP</title>
<polygon fill="lightpink" stroke="black" points="364.5,-419.74 207.5,-419.74 207.5,-381.74 364.5,-381.74 364.5,-419.74"/>
<text text-anchor="middle" x="286" y="-404.54" font-family="Times,serif" font-size="14.00">uvx blender&#45;mcp</text>
<text text-anchor="middle" x="286" y="-389.54" font-family="Times,serif" font-size="14.00">(expects port 9876)</text>
</g>
<!-- Input&#45;&gt;Ref_MCP -->
<g id="edge6" class="edge">
<title>Input&#45;&gt;Ref_MCP</title>
<path fill="none" stroke="black" d="M214.48,-478.43C228.89,-462.98 247.31,-443.23 261.84,-427.65"/>
<polygon fill="black" stroke="black" points="264.79,-429.62 269.05,-419.92 259.67,-424.85 264.79,-429.62"/>
</g>
<!-- Our_Service -->
<g id="node3" class="node">
<title>Our_Service</title>
<polygon fill="lightgreen" stroke="black" points="172,-330.74 22,-330.74 22,-292.74 172,-292.74 172,-330.74"/>
<text text-anchor="middle" x="97" y="-315.54" font-family="Times,serif" font-size="14.00">BLD_Remote_MCP</text>
<text text-anchor="middle" x="97" y="-300.54" font-family="Times,serif" font-size="14.00">(port 6688)</text>
</g>
<!-- Our_MCP&#45;&gt;Our_Service -->
<g id="edge1" class="edge">
<title>Our_MCP&#45;&gt;Our_Service</title>
<path fill="none" stroke="black" d="M97.79,-381.71C97.66,-369.93 97.48,-354.3 97.32,-340.9"/>
<polygon fill="black" stroke="black" points="100.82,-340.7 97.21,-330.74 93.82,-340.78 100.82,-340.7"/>
<text text-anchor="middle" x="134.5" y="-352.54" font-family="Times,serif" font-size="14.00">JSON/TCP</text>
</g>
<!-- Our_Blender -->
<g id="node4" class="node">
<title>Our_Blender</title>
<polygon fill="white" stroke="black" points="178,-241.74 16,-241.74 16,-203.74 178,-203.74 178,-241.74"/>
<text text-anchor="middle" x="97" y="-226.54" font-family="Times,serif" font-size="14.00">Blender</text>
<text text-anchor="middle" x="97" y="-211.54" font-family="Times,serif" font-size="14.00">(GUI + Background)</text>
</g>
<!-- Our_Service&#45;&gt;Our_Blender -->
<g id="edge2" class="edge">
<title>Our_Service&#45;&gt;Our_Blender</title>
<path fill="none" stroke="black" d="M97,-292.71C97,-280.93 97,-265.3 97,-251.9"/>
<polygon fill="black" stroke="black" points="100.5,-251.74 97,-241.74 93.5,-251.74 100.5,-251.74"/>
<text text-anchor="middle" x="137" y="-263.54" font-family="Times,serif" font-size="14.00">Python API</text>
</g>
<!-- Our_Output -->
<g id="node8" class="node">
<title>Our_Output</title>
<ellipse fill="lightgreen" stroke="black" cx="96" cy="-139.87" rx="69.09" ry="26.74"/>
<text text-anchor="middle" x="96" y="-143.67" font-family="Times,serif" font-size="14.00">Our Result</text>
<text text-anchor="middle" x="96" y="-128.67" font-family="Times,serif" font-size="14.00">(Enhanced)</text>
</g>
<!-- Our_Blender&#45;&gt;Our_Output -->
<g id="edge7" class="edge">
<title>Our_Blender&#45;&gt;Our_Output</title>
<path fill="none" stroke="black" d="M96.77,-203.39C96.68,-195.53 96.56,-186.07 96.45,-176.92"/>
<polygon fill="black" stroke="black" points="99.94,-176.77 96.32,-166.81 92.94,-176.85 99.94,-176.77"/>
</g>
<!-- Ref_Service -->
<g id="node6" class="node">
<title>Ref_Service</title>
<polygon fill="lightcoral" stroke="black" points="350,-330.74 210,-330.74 210,-292.74 350,-292.74 350,-330.74"/>
<text text-anchor="middle" x="280" y="-315.54" font-family="Times,serif" font-size="14.00">BlenderAutoMCP</text>
<text text-anchor="middle" x="280" y="-300.54" font-family="Times,serif" font-size="14.00">(port 9876)</text>
</g>
<!-- Ref_MCP&#45;&gt;Ref_Service -->
<g id="edge3" class="edge">
<title>Ref_MCP&#45;&gt;Ref_Service</title>
<path fill="none" stroke="black" d="M284.76,-381.71C283.94,-369.93 282.87,-354.3 281.94,-340.9"/>
<polygon fill="black" stroke="black" points="285.42,-340.48 281.24,-330.74 278.44,-340.96 285.42,-340.48"/>
<text text-anchor="middle" x="346.5" y="-352.54" font-family="Times,serif" font-size="14.00">connects to :9876</text>
</g>
<!-- Ref_Blender -->
<g id="node7" class="node">
<title>Ref_Blender</title>
<polygon fill="white" stroke="black" points="326,-241.74 236,-241.74 236,-203.74 326,-203.74 326,-241.74"/>
<text text-anchor="middle" x="281" y="-226.54" font-family="Times,serif" font-size="14.00">Blender</text>
<text text-anchor="middle" x="281" y="-211.54" font-family="Times,serif" font-size="14.00">(GUI only)</text>
</g>
<!-- Ref_Service&#45;&gt;Ref_Blender -->
<g id="edge4" class="edge">
<title>Ref_Service&#45;&gt;Ref_Blender</title>
<path fill="none" stroke="black" d="M280.21,-292.71C280.34,-280.93 280.52,-265.3 280.68,-251.9"/>
<polygon fill="black" stroke="black" points="284.18,-251.78 280.79,-241.74 277.18,-251.7 284.18,-251.78"/>
<text text-anchor="middle" x="320" y="-263.54" font-family="Times,serif" font-size="14.00">Python API</text>
</g>
<!-- Ref_Output -->
<g id="node9" class="node">
<title>Ref_Output</title>
<ellipse fill="lightcoral" stroke="black" cx="282" cy="-139.87" rx="98.08" ry="26.74"/>
<text text-anchor="middle" x="282" y="-143.67" font-family="Times,serif" font-size="14.00">Reference Result</text>
<text text-anchor="middle" x="282" y="-128.67" font-family="Times,serif" font-size="14.00">(Baseline)</text>
</g>
<!-- Ref_Blender&#45;&gt;Ref_Output -->
<g id="edge8" class="edge">
<title>Ref_Blender&#45;&gt;Ref_Output</title>
<path fill="none" stroke="black" d="M281.23,-203.39C281.32,-195.53 281.44,-186.07 281.55,-176.92"/>
<polygon fill="black" stroke="black" points="285.06,-176.85 281.68,-166.81 278.06,-176.77 285.06,-176.85"/>
</g>
<!-- Comparison -->
<g id="node10" class="node">
<title>Comparison</title>
<polygon fill="yellow" stroke="black" points="188,-76 4,-38 188,0 372,-38 188,-76"/>
<text text-anchor="middle" x="188" y="-41.8" font-family="Times,serif" font-size="14.00">Functional Equivalence</text>
<text text-anchor="middle" x="188" y="-26.8" font-family="Times,serif" font-size="14.00">Validation</text>
</g>
<!-- Our_Output&#45;&gt;Comparison -->
<g id="edge9" class="edge">
<title>Our_Output&#45;&gt;Comparison</title>
<path fill="none" stroke="black" d="M118.51,-114.44C128.64,-103.44 140.85,-90.18 152.19,-77.87"/>
<polygon fill="black" stroke="black" points="154.91,-80.08 159.11,-70.36 149.76,-75.34 154.91,-80.08"/>
</g>
<!-- Ref_Output&#45;&gt;Comparison -->
<g id="edge10" class="edge">
<title>Ref_Output&#45;&gt;Comparison</title>
<path fill="none" stroke="black" d="M258.28,-113.67C248.01,-102.76 235.76,-89.74 224.38,-77.65"/>
<polygon fill="black" stroke="black" points="226.84,-75.16 217.44,-70.27 221.74,-79.95 226.84,-75.16"/>
</g>
</g>
</svg>
